HIERARCHY
ROOT Hips
{
	OFFSET	0.00	0.00	0.00
	CHANNELS 6 Xposition Yposition Zposition Zrotation Xrotation Yrotation
	JOINT LeftUpLeg
	{
		OFFSET	 0.126116	-0.065224	 0.014019
		CHANNELS 3 Zrotation Xrotation Yrotation
		JOINT LeftLeg
		{
			OFFSET	 0.000000	 0.569914	 0.000000
			CHANNELS 3 Zrotation Xrotation Yrotation
			JOINT LeftFoot
			{
				OFFSET	 0.000000	 0.544423	 0.000000
				CHANNELS 3 Zrotation Xrotation Yrotation
				JOINT LeftToeBase
				{
					OFFSET	 0.000000	 0.207117	 0.000000
					CHANNELS 3 Zrotation Xrotation Yrotation
					End Site
					{
						OFFSET	 0.000000	 0.207117	 0.000000
					}
				}
			}
		}
	}
	JOINT RightUpLeg
	{
		OFFSET	-0.124023	-0.065224	 0.008373
		CHANNELS 3 Zrotation Xrotation Yrotation
		JOINT RightLeg
		{
			OFFSET	 0.000000	 0.570047	 0.000000
			CHANNELS 3 Zrotation Xrotation Yrotation
			JOINT RightFoot
			{
				OFFSET	 0.000000	 0.544354	 0.000000
				CHANNELS 3 Zrotation Xrotation Yrotation
				JOINT RightToeBase
				{
					OFFSET	 0.000000	 0.207540	 0.000000
					CHANNELS 3 Zrotation Xrotation Yrotation
					End Site
					{
						OFFSET	 0.000000	 0.207540	 0.000000
					}
				}
			}
		}
	}
	JOINT Spine
	{
		OFFSET	 0.000184	 0.117403	 0.007763
		CHANNELS 3 Zrotation Xrotation Yrotation
		JOINT Spine1
		{
			OFFSET	 0.000000	 0.137269	 0.000000
			CHANNELS 3 Zrotation Xrotation Yrotation
			JOINT Spine2
			{
				OFFSET	 0.000000	 0.156879	 0.000000
				CHANNELS 3 Zrotation Xrotation Yrotation
				JOINT LeftShoulder
				{
					OFFSET	 0.080501	 0.160143	 0.002496
					CHANNELS 3 Zrotation Xrotation Yrotation
					JOINT LeftArm
					{
						OFFSET	 0.000000	 0.164363	 0.000000
						CHANNELS 3 Zrotation Xrotation Yrotation
						JOINT LeftForeArm
						{
							OFFSET	 0.000000	 0.364576	 0.000000
							CHANNELS 3 Zrotation Xrotation Yrotation
							JOINT LeftHand
							{
								OFFSET	 0.000000	 0.360812	 0.000000
								CHANNELS 3 Zrotation Xrotation Yrotation
								JOINT LeftHandIndex1
								{
									OFFSET	 0.000000	 0.086006	 0.000000
									CHANNELS 3 Zrotation Xrotation Yrotation
									JOINT LeftHandIndex2
									{
										OFFSET	 0.000000	 0.047237	 0.000000
										CHANNELS 3 Zrotation Xrotation Yrotation
										JOINT LeftHandIndex3
										{
											OFFSET	-0.004284	 0.038165	 0.000551
											CHANNELS 3 Zrotation Xrotation Yrotation
											End Site
											{
												OFFSET	-0.004284	 0.038165	 0.000551
											}
										}
									}
								}
							}
						}
					}
				}
				JOINT Neck
				{
					OFFSET	 0.000000	 0.176489	 0.000000
					CHANNELS 3 Zrotation Xrotation Yrotation
					JOINT Head
					{
						OFFSET	 0.000000	 0.077941	 0.001747
						CHANNELS 3 Zrotation Xrotation Yrotation
						End Site
						{
							OFFSET	 0.000000	 0.077941	 0.001747
						}
					}
				}
				JOINT RightShoulder
				{
					OFFSET	-0.080363	 0.159706	-0.000306
					CHANNELS 3 Zrotation Xrotation Yrotation
					JOINT RightArm
					{
						OFFSET	 0.000000	 0.164196	 0.000000
						CHANNELS 3 Zrotation Xrotation Yrotation
						JOINT RightForeArm
						{
							OFFSET	 0.000000	 0.365611	 0.000000
							CHANNELS 3 Zrotation Xrotation Yrotation
							JOINT RightHand
							{
								OFFSET	 0.000000	 0.360648	 0.000000
								CHANNELS 3 Zrotation Xrotation Yrotation
								JOINT RightHandIndex1
								{
									OFFSET	 0.000000	 0.069977	 0.000000
									CHANNELS 3 Zrotation Xrotation Yrotation
									JOINT RightHandIndex2
									{
										OFFSET	 0.000000	 0.052305	 0.000000
										CHANNELS 3 Zrotation Xrotation Yrotation
										JOINT RightHandIndex3
										{
											OFFSET	 0.009002	 0.042196	 0.000782
											CHANNELS 3 Zrotation Xrotation Yrotation
											End Site
											{
												OFFSET	 0.009002	 0.042196	 0.000782
											}
										}
									}
								}
							}
						}
					}
				}
			}
		}
	}
}
MOTION
Frames:    11
Frame Time: 0.03333334
 0.006838	 1.265403	-0.257880	-0.002897	 3.209797	 178.787000	 179.452000	 0.571035	-4.213683	 3.256553	-16.052680	 2.921106	-5.266662	 73.373940	 7.405243	 1.331492	 28.938720	-2.729976	 179.498900	-14.401950	 7.883560	-1.468958	-4.834183	-5.790459	 0.881653	 77.217190	-1.733175	-1.305361	 28.580660	 2.604319	-1.094810	 3.343776	-0.899189	-1.644613	 3.503299	-1.238804	-1.664785	-2.103311	-0.651679	-113.447100	 5.125680	 92.999970	 9.590926	 54.033450	 35.546280	 12.936470	-0.663699	-0.008598	-8.047900	-20.298920	-18.670880	-6.580301	 5.266122	 0.000000	 0.000000	 0.000000	 0.000000	 0.000000	 0.000000	 0.000000	 3.831483	-0.647668	-0.250611	 3.214712	 1.183801	 1.442076	 114.205500	-4.426756	-88.483670	-51.205650	 10.481880	 44.968560	-94.336360	-2.246621	-2.364862	-26.712900	-22.645310	-26.416920	-0.359781	 10.582430	 0.744568	 11.977790	 9.317302	-2.096063	-8.359142	 3.150332	 0.104224
 0.006121	 1.266713	-0.226819	 0.015872	 3.212708	 178.749600	 179.410600	 1.502047	-4.243296	 3.504435	-17.203380	 2.975116	-5.442034	 73.475230	 7.502660	 1.331492	 28.938720	-2.729976	 179.510300	-12.852050	 7.799863	-1.477148	-4.861012	-5.818873	 0.501724	 75.576680	-1.376218	-1.305373	 28.580720	 2.601411	-1.096645	 3.332982	-0.890043	-1.633072	 3.518265	-1.220111	-1.671995	-2.129419	-0.646218	-113.447200	 5.119512	 92.998610	 8.900079	 53.780650	 36.144510	 13.980960	-0.716280	 0.003955	-8.725414	-20.485530	-18.744070	-6.580301	 5.266122	 0.000000	 0.000000	 0.000000	 0.000000	 0.000000	 0.000000	 0.000000	 3.841517	-0.670689	-0.253735	 3.252427	 1.196731	 1.420357	 114.203700	-4.414538	-88.492510	-50.630100	 10.206560	 43.634450	-95.375830	-2.243158	-2.405534	-27.601850	-22.340550	-27.061690	-0.359779	 10.582370	 0.744568	 11.977790	 9.317241	-2.096051	-8.359141	 3.150300	 0.104228
 0.005413	 1.268147	-0.192857	 0.043438	 3.216969	 178.694300	 179.367000	 2.608655	-4.289395	 3.820396	-18.649190	 3.047365	-5.715433	 73.684270	 7.675463	 1.331492	 28.938720	-2.729976	 179.535000	-11.136490	 7.709435	-1.485620	-4.888759	-5.860785	 0.166511	 73.762140	-1.064929	-1.305389	 28.580820	 2.597110	-1.099412	 3.317024	-0.878899	-1.624200	 3.535718	-1.194496	-1.678848	-2.165644	-0.638124	-113.447300	 5.110394	 92.996640	 8.205405	 53.532190	 36.764580	 15.090950	-0.771837	 0.018415	-9.529499	-20.779860	-18.858650	-6.580301	 5.266122	 0.000000	 0.000000	 0.000000	 0.000000	 0.000000	 0.000000	 0.000000	 3.856356	-0.704739	-0.258348	 3.308227	 1.215940	 1.388200	 114.201100	-4.396444	-88.505580	-49.849390	 9.925592	 41.507130	-97.316230	-2.234694	-2.481363	-28.682770	-21.944360	-28.264580	-0.359776	 10.582280	 0.744568	 11.977790	 9.317151	-2.096033	-8.359139	 3.150252	 0.104232
 0.004835	 1.269451	-0.161903	 0.074984	 3.222073	 178.630700	 179.396100	 3.143491	-4.347591	 3.899646	-19.007980	 3.044333	-5.748050	 73.377910	 7.684683	 1.331492	 28.938720	-2.729976	 179.693400	-8.805168	 7.648160	-1.947987	-6.398592	-5.953907	 0.064652	 72.869560	-0.832744	-1.305409	 28.580930	 2.592160	-1.102791	 3.298695	-0.869000	-1.624340	 3.549556	-1.167424	-1.681886	-2.204240	-0.628782	-113.447500	 5.099909	 92.994330	 7.624691	 53.334790	 37.301900	 16.088020	-0.821522	 0.032279	-10.341520	-21.132280	-18.996690	-6.580301	 5.266122	 0.000000	 0.000000	 0.000000	 0.000000	 0.000000	 0.000000	 0.000000	 3.873428	-0.743924	-0.263646	 3.372472	 1.237935	 1.351149	 114.198000	-4.375633	-88.520630	-49.101310	 9.681345	 38.852860	-99.986760	-2.218961	-2.585171	-29.590150	-21.532260	-29.981640	-0.359773	 10.582170	 0.744568	 11.977790	 9.317046	-2.096012	-8.359138	 3.150197	 0.104237
 0.004328	 1.270720	-0.131578	 0.111747	 3.228048	 178.556600	 179.487600	 3.228183	-4.420748	 3.781696	-18.473350	 2.973058	-5.583958	 72.620070	 7.560780	 1.331492	 28.938720	-2.729976	-179.884700	-4.962449	 7.607489	-3.354888	-10.927270	-6.222286	 0.310738	 73.578680	-0.643088	-1.305431	 28.581050	 2.586349	-1.106839	 3.277206	-0.860404	-1.636441	 3.558725	-1.138124	-1.679837	-2.246038	-0.617798	-113.447700	 5.087596	 92.991630	 7.106134	 53.172970	 37.801670	 17.059250	-0.869712	 0.046586	-11.226830	-21.557210	-19.164450	-6.580301	 5.266122	 0.000000	 0.000000	 0.000000	 0.000000	 0.000000	 0.000000	 0.000000	 3.893468	-0.789932	-0.269851	 3.447945	 1.263713	 1.307585	 114.194500	-4.351209	-88.538310	-48.507110	 9.369463	 35.485470	-103.478400	-2.191091	-2.719578	-30.230800	-21.057200	-32.399740	-0.359769	 10.582050	 0.744568	 11.977790	 9.316925	-2.095987	-8.359135	 3.150133	 0.104243
 0.003856	 1.272010	-0.100462	 0.155547	 3.235163	 178.467100	 179.639300	 2.910657	-4.513675	 3.484825	-17.112910	 2.842498	-5.265978	 71.424450	 7.341856	 1.331492	 28.938720	-2.729976	-179.609900	-2.070875	 7.525576	-4.162426	-13.466520	-6.460874	 0.356668	 73.192050	-0.458547	-1.305458	 28.581210	 2.579385	-1.111844	 3.251480	-0.851749	-1.663618	 3.561167	-1.104081	-1.671526	-2.291850	-0.604603	-113.447900	 5.072824	 92.988370	 6.630946	 53.044640	 38.284420	 18.050570	-0.918595	 0.062046	-12.237490	-22.075610	-19.370660	-6.580301	 5.266122	 0.000000	 0.000000	 0.000000	 0.000000	 0.000000	 0.000000	 0.000000	 3.917479	-0.845075	-0.277267	 3.538454	 1.294595	 1.255281	 114.190300	-4.321934	-88.559480	-48.342060	 8.800892	 31.153080	-107.800400	-2.145315	-2.883115	-30.457810	-20.433880	-35.766800	-0.359764	 10.581900	 0.744568	 11.977790	 9.316779	-2.095958	-8.359133	 3.150056	 0.104251
 0.003623	 1.273111	-0.075542	 0.203765	 3.242744	 178.368600	 179.809400	 2.428088	-4.618979	 3.155008	-15.577290	 2.705965	-4.982297	 70.226560	 7.165862	 1.331492	 28.938720	-2.729976	-179.425400	-0.137160	 7.439534	-4.569953	-14.727500	-6.635873	 0.275793	 72.459800	-0.270927	-1.305488	 28.581380	 2.571685	-1.117468	 3.223083	-0.841729	-1.703448	 3.556271	-1.065502	-1.657809	-2.339030	-0.589992	-113.448200	 5.056527	 92.984820	 6.260537	 52.973660	 38.695520	 18.954930	-0.962919	 0.076908	-13.289990	-22.655540	-19.598980	-6.580301	 5.266122	 0.000000	 0.000000	 0.000000	 0.000000	 0.000000	 0.000000	 0.000000	 3.944017	-0.906042	-0.285439	 3.638601	 1.328504	 1.197347	 114.185600	-4.289550	-88.582890	-49.037110	 7.804136	 26.104550	-112.292500	-2.084838	-3.049000	-30.121930	-19.613820	-39.882320	-0.359759	 10.581740	 0.744568	 11.977790	 9.316617	-2.095925	-8.359129	 3.149970	 0.104259
 0.004439	 1.273576	-0.076201	 0.258359	 3.251667	 178.257100	 179.907600	 2.415079	-4.740508	 3.165124	-15.624770	 2.659511	-5.159828	 70.189310	 7.317132	 1.331492	 28.938720	-2.729976	-179.330700	-0.219297	 7.378769	-4.533911	-14.616530	-6.713398	-0.019410	 72.366660	 0.017853	-1.305522	 28.581570	 2.562960	-1.123930	 3.190963	-0.825712	-1.752083	 3.547078	-1.016885	-1.640747	-2.390610	-0.573388	-113.448500	 5.038033	 92.980760	 6.075760	 53.001210	 38.974640	 19.650780	-0.996890	 0.088843	-14.334410	-23.319990	-19.851320	-6.580301	 5.266122	 0.000000	 0.000000	 0.000000	 0.000000	 0.000000	 0.000000	 0.000000	 3.974077	-0.975128	-0.294665	 3.752166	 1.366895	 1.131554	 114.180400	-4.252861	-88.609410	-51.048930	 6.218741	 20.275200	-116.519500	-2.016224	-3.200287	-29.205950	-18.490060	-44.655450	-0.359753	 10.581560	 0.744568	 11.977790	 9.316436	-2.095888	-8.359126	 3.149874	 0.104268
 0.005316	 1.274044	-0.076970	 0.319440	 3.261259	 178.132500	-179.984300	 2.397991	-4.876128	 3.176344	-15.677370	 2.608180	-5.356583	 70.158390	 7.485836	 1.331492	 28.938720	-2.729976	-179.227700	-0.313733	 7.310404	-4.492834	-14.490010	-6.800653	-0.345095	 72.270710	 0.338976	-1.305559	 28.581790	 2.553231	-1.130986	 3.155177	-0.795617	-1.798068	 3.535918	-0.950749	-1.625878	-2.447831	-0.554874	-113.448800	 5.017423	 92.976240	 5.938008	 53.060090	 39.232030	 20.333120	-1.030081	 0.100886	-15.443520	-24.051020	-20.111620	-6.580301	 5.266122	 0.000000	 0.000000	 0.000000	 0.000000	 0.000000	 0.000000	 0.000000	 4.007584	-1.052172	-0.304910	 3.878928	 1.409518	 1.058006	 114.174500	-4.211941	-88.638970	-54.588550	 4.046422	 14.086510	-119.758000	-1.956179	-3.312584	-27.948930	-17.025630	-49.382110	-0.359747	 10.581350	 0.744568	 11.977790	 9.316232	-2.095847	-8.359121	 3.149766	 0.104278
 0.006266	 1.274562	-0.077928	 0.395831	 3.273297	 177.979200	-179.856900	 2.374219	-5.043285	 3.191107	-15.746580	 2.545647	-5.593301	 70.135590	 7.693571	 1.331492	 28.938720	-2.729976	-179.109600	-0.432619	 7.225379	-4.441646	-14.332030	-6.910060	-0.735316	 72.160280	 0.733355	-1.305606	 28.582050	 2.541210	-1.139246	 3.110998	-0.731086	-1.821558	 3.535187	-0.843009	-1.623612	-2.525073	-0.531998	-113.449300	 4.991946	 92.970650	 5.820005	 53.142230	 39.506330	 21.068110	-1.065653	 0.114297	-16.691560	-24.929170	-20.380220	-6.580301	 5.266122	 0.000000	 0.000000	 0.000000	 0.000000	 0.000000	 0.000000	 0.000000	 4.048969	-1.147378	-0.317507	 4.035731	 1.462046	 0.966856	 114.167300	-4.161383	-88.675490	-59.416100	 1.132669	 7.685316	-121.737100	-1.916406	-3.379452	-27.274770	-15.019470	-53.225820	-0.359738	 10.581100	 0.744568	 11.977790	 9.315979	-2.095796	-8.359116	 3.149633	 0.104291
 0.007010	 1.275072	-0.078934	 0.481706	 3.285945	 177.810900	-179.730300	 2.346437	-5.227959	 3.209272	-15.831620	 2.478360	-5.836804	 70.130460	 7.918162	 1.331492	 28.938720	-2.729976	-178.998600	-0.560076	 7.129220	-4.386377	-14.161240	-7.032583	-1.135609	 72.046130	 1.159394	-1.305657	 28.582350	 2.528001	-1.147208	 3.062458	-0.609993	-1.773842	 3.565249	-0.677540	-1.656527	-2.625317	-0.506900	-113.449700	 4.963964	 92.964520	 5.685484	 53.198230	 39.807110	 21.779440	-1.099918	 0.127705	-17.844960	-25.847120	-20.576100	-6.580301	 5.266122	 0.000000	 0.000000	 0.000000	 0.000000	 0.000000	 0.000000	 0.000000	 4.094418	-1.251996	-0.331270	 4.208246	 1.519347	 0.866381	 114.159400	-4.105834	-88.715610	-62.252040	-2.397161	 3.228377	-122.456800	-1.901365	-3.403417	-29.814660	-12.835560	-53.997490	-0.359730	 10.580820	 0.744568	 11.977790	 9.315702	-2.095741	-8.359111	 3.149487	 0.104305
